<svg width="303" height="156" viewBox="0 0 303 156" fill="none" xmlns="http://www.w3.org/2000/svg">
<path d="M89.2383 49.8182V52.375H77.2724V49.8182H89.2383ZM100.603 79.9375L92.1658 48.5909H94.9272L103.365 79.9375H100.603ZM120.492 76V78.8125H104.129V76H120.492ZM124.292 64.9545C124.292 61.733 124.71 58.7713 125.545 56.0696C126.389 53.3594 127.591 50.8665 129.15 48.5909H131.809C131.196 49.4347 130.62 50.4744 130.083 51.7102C129.555 52.9375 129.091 54.2884 128.69 55.7628C128.289 57.2287 127.974 58.7457 127.744 60.3139C127.522 61.8821 127.412 63.429 127.412 64.9545C127.412 66.983 127.608 69.0412 128 71.1293C128.392 73.2173 128.92 75.1562 129.585 76.946C130.25 78.7358 130.991 80.1932 131.809 81.3182H129.15C127.591 79.0426 126.389 76.554 125.545 73.8523C124.71 71.142 124.292 68.1761 124.292 64.9545ZM149.88 48.964C150.672 50.656 152.868 56.38 153.48 58.396L150.672 59.368C150.06 57.316 148.044 51.772 147.144 49.864L149.88 48.964ZM165.9 51.268C165.648 51.844 165.396 52.744 165.252 53.284C164.136 57.784 162.228 62.896 159.24 66.784C155.532 71.68 150.24 75.388 145.128 77.188L142.68 74.704C147.792 73.192 153.156 69.736 156.792 65.128C159.636 61.492 161.868 55.732 162.552 50.296L165.9 51.268ZM139.836 51.124C140.808 53.14 143.04 58.612 143.904 60.988L141.024 62.032C140.34 59.8 137.856 53.716 137.028 52.132L139.836 51.124ZM178.705 64.9545C178.705 68.1761 178.283 71.142 177.439 73.8523C176.604 76.554 175.406 79.0426 173.847 81.3182H171.188C171.801 80.4744 172.372 79.4347 172.901 78.1989C173.438 76.9716 173.906 75.625 174.307 74.1591C174.707 72.6847 175.018 71.1634 175.24 69.5952C175.47 68.0185 175.585 66.4716 175.585 64.9545C175.585 62.9261 175.389 60.8679 174.997 58.7798C174.605 56.6918 174.077 54.7528 173.412 52.9631C172.747 51.1733 172.006 49.7159 171.188 48.5909H173.847C175.406 50.8665 176.604 53.3594 177.439 56.0696C178.283 58.7713 178.705 61.733 178.705 64.9545ZM198.855 76V78.8125H182.492V76H198.855ZM210.837 48.5909L202.4 79.9375H199.638L208.076 48.5909H210.837ZM225.715 49.8182V52.375H213.749V49.8182H225.715ZM98.7812 99.432H100.333V111H98.7812V99.432ZM103.928 101.464H105.416V104.408H107.24V105.576H105.416V111H103.928V105.576H102.712V104.408H103.928V101.464ZM109.054 101.976L108.302 101.592C108.526 101.379 108.702 101.085 108.83 100.712C108.969 100.339 109.001 99.9653 108.926 99.592L110.11 99.48C110.174 99.7787 110.164 100.093 110.078 100.424C109.993 100.744 109.86 101.043 109.678 101.32C109.497 101.597 109.289 101.816 109.054 101.976ZM113.847 111.128C113.378 111.128 112.919 111.048 112.471 110.888C112.034 110.717 111.671 110.467 111.383 110.136L112.007 109.272C112.285 109.539 112.567 109.741 112.855 109.88C113.154 110.008 113.447 110.072 113.735 110.072C113.949 110.072 114.146 110.045 114.327 109.992C114.509 109.939 114.653 109.853 114.759 109.736C114.877 109.608 114.935 109.437 114.935 109.224C114.935 108.989 114.855 108.803 114.695 108.664C114.546 108.525 114.349 108.413 114.103 108.328C113.869 108.243 113.618 108.163 113.351 108.088C112.807 107.907 112.391 107.656 112.103 107.336C111.815 107.016 111.671 106.627 111.671 106.168C111.671 105.816 111.757 105.491 111.927 105.192C112.109 104.883 112.37 104.632 112.711 104.44C113.063 104.248 113.495 104.152 114.007 104.152C114.466 104.152 114.877 104.211 115.239 104.328C115.602 104.435 115.943 104.616 116.263 104.872L115.671 105.8C115.479 105.597 115.25 105.448 114.983 105.352C114.717 105.256 114.477 105.203 114.263 105.192C114.082 105.181 113.906 105.208 113.735 105.272C113.575 105.336 113.442 105.427 113.335 105.544C113.229 105.661 113.175 105.8 113.175 105.96C113.175 106.184 113.25 106.365 113.399 106.504C113.549 106.643 113.741 106.755 113.975 106.84C114.221 106.915 114.461 106.995 114.695 107.08C115.026 107.176 115.319 107.304 115.575 107.464C115.831 107.624 116.034 107.821 116.183 108.056C116.343 108.291 116.423 108.584 116.423 108.936C116.423 109.331 116.327 109.699 116.135 110.04C115.954 110.371 115.671 110.637 115.287 110.84C114.914 111.032 114.434 111.128 113.847 111.128ZM126.641 111.16C125.884 111.16 125.233 111.011 124.689 110.712C124.145 110.403 123.724 109.987 123.425 109.464C123.137 108.931 122.993 108.323 122.993 107.64C122.993 106.989 123.159 106.397 123.489 105.864C123.82 105.331 124.263 104.904 124.817 104.584C125.372 104.264 125.991 104.104 126.673 104.104C127.548 104.104 128.273 104.36 128.849 104.872C129.425 105.384 129.815 106.088 130.017 106.984L124.561 108.904L124.209 108.024L128.689 106.392L128.369 106.6C128.241 106.248 128.028 105.944 127.729 105.688C127.431 105.421 127.041 105.288 126.561 105.288C126.156 105.288 125.793 105.389 125.473 105.592C125.153 105.784 124.903 106.051 124.721 106.392C124.54 106.733 124.449 107.123 124.449 107.56C124.449 108.019 124.545 108.424 124.737 108.776C124.929 109.117 125.191 109.389 125.521 109.592C125.863 109.784 126.247 109.88 126.673 109.88C126.961 109.88 127.239 109.827 127.505 109.72C127.783 109.613 128.039 109.475 128.273 109.304L128.961 110.408C128.631 110.632 128.257 110.813 127.841 110.952C127.436 111.091 127.036 111.16 126.641 111.16ZM133.21 104.376L133.338 105.864L133.274 105.736C133.519 105.235 133.866 104.84 134.314 104.552C134.773 104.264 135.295 104.12 135.882 104.12C136.255 104.12 136.586 104.179 136.874 104.296C137.162 104.413 137.397 104.584 137.578 104.808C137.77 105.021 137.893 105.288 137.946 105.608L137.866 105.656C138.122 105.176 138.474 104.803 138.922 104.536C139.381 104.259 139.861 104.12 140.362 104.12C141.013 104.12 141.525 104.307 141.898 104.68C142.282 105.043 142.479 105.517 142.49 106.104V111H141.002V106.632C140.991 106.291 140.906 106.008 140.746 105.784C140.597 105.549 140.33 105.421 139.946 105.4C139.562 105.4 139.215 105.517 138.906 105.752C138.607 105.987 138.373 106.291 138.202 106.664C138.031 107.027 137.941 107.421 137.93 107.848V111H136.442V106.632C136.431 106.291 136.341 106.008 136.17 105.784C136.01 105.549 135.738 105.421 135.354 105.4C134.959 105.4 134.613 105.517 134.314 105.752C134.015 105.987 133.781 106.291 133.61 106.664C133.45 107.037 133.37 107.437 133.37 107.864V111H131.882V104.376H133.21ZM148.989 111.16C148.488 111.16 148.002 111.043 147.533 110.808C147.074 110.573 146.717 110.259 146.461 109.864L146.557 109.4V114.184H145.085V104.28H146.365L146.573 105.976L146.413 105.512C146.733 105.107 147.138 104.771 147.629 104.504C148.12 104.237 148.669 104.104 149.277 104.104C149.896 104.104 150.45 104.253 150.941 104.552C151.442 104.851 151.837 105.267 152.125 105.8C152.413 106.333 152.557 106.957 152.557 107.672C152.557 108.387 152.402 109.005 152.093 109.528C151.784 110.051 151.357 110.456 150.813 110.744C150.28 111.021 149.672 111.16 148.989 111.16ZM148.701 109.976C149.128 109.976 149.517 109.88 149.869 109.688C150.232 109.485 150.52 109.213 150.733 108.872C150.946 108.52 151.053 108.125 151.053 107.688C151.053 107.24 150.952 106.845 150.749 106.504C150.546 106.152 150.274 105.875 149.933 105.672C149.602 105.469 149.229 105.368 148.813 105.368C148.429 105.368 148.082 105.443 147.773 105.592C147.464 105.741 147.208 105.949 147.005 106.216C146.802 106.472 146.658 106.771 146.573 107.112V108.216C146.626 108.557 146.754 108.861 146.957 109.128C147.16 109.395 147.41 109.603 147.709 109.752C148.018 109.901 148.349 109.976 148.701 109.976ZM155.209 101.464H156.697V104.408H158.521V105.576H156.697V111H155.209V105.576H153.993V104.408H155.209V101.464ZM160.879 114.184L165.247 104.376H166.623L162.351 114.184H160.879ZM162.511 111.048L159.327 104.376H161.007L163.679 110.296L162.511 111.048ZM173.288 111V98.616H174.744V105.912L174.712 105.64C174.936 105.203 175.278 104.84 175.736 104.552C176.206 104.264 176.755 104.12 177.384 104.12C178.014 104.12 178.526 104.307 178.92 104.68C179.326 105.043 179.534 105.517 179.544 106.104V111H178.04V106.632C178.03 106.269 177.923 105.976 177.72 105.752C177.528 105.517 177.224 105.4 176.808 105.4C176.424 105.4 176.078 105.512 175.768 105.736C175.459 105.949 175.214 106.243 175.032 106.616C174.862 106.989 174.776 107.416 174.776 107.896V111H173.288ZM185.204 111.16C184.447 111.16 183.796 111.011 183.252 110.712C182.708 110.403 182.287 109.987 181.988 109.464C181.7 108.931 181.556 108.323 181.556 107.64C181.556 106.989 181.721 106.397 182.052 105.864C182.383 105.331 182.825 104.904 183.38 104.584C183.935 104.264 184.553 104.104 185.236 104.104C186.111 104.104 186.836 104.36 187.412 104.872C187.988 105.384 188.377 106.088 188.58 106.984L183.124 108.904L182.772 108.024L187.252 106.392L186.932 106.6C186.804 106.248 186.591 105.944 186.292 105.688C185.993 105.421 185.604 105.288 185.124 105.288C184.719 105.288 184.356 105.389 184.036 105.592C183.716 105.784 183.465 106.051 183.284 106.392C183.103 106.733 183.012 107.123 183.012 107.56C183.012 108.019 183.108 108.424 183.3 108.776C183.492 109.117 183.753 109.389 184.084 109.592C184.425 109.784 184.809 109.88 185.236 109.88C185.524 109.88 185.801 109.827 186.068 109.72C186.345 109.613 186.601 109.475 186.836 109.304L187.524 110.408C187.193 110.632 186.82 110.813 186.404 110.952C185.999 111.091 185.599 111.16 185.204 111.16ZM191.772 104.376L191.916 106.296L191.836 106.04C192.007 105.635 192.252 105.293 192.572 105.016C192.903 104.728 193.244 104.509 193.596 104.36C193.959 104.2 194.274 104.12 194.54 104.12L194.46 105.592C193.959 105.56 193.516 105.656 193.132 105.88C192.759 106.104 192.46 106.403 192.236 106.776C192.023 107.149 191.916 107.549 191.916 107.976V111H190.444V104.376H191.772ZM199.251 111.16C198.493 111.16 197.843 111.011 197.299 110.712C196.755 110.403 196.333 109.987 196.035 109.464C195.747 108.931 195.603 108.323 195.603 107.64C195.603 106.989 195.768 106.397 196.099 105.864C196.429 105.331 196.872 104.904 197.427 104.584C197.981 104.264 198.6 104.104 199.283 104.104C200.157 104.104 200.883 104.36 201.459 104.872C202.035 105.384 202.424 106.088 202.627 106.984L197.171 108.904L196.819 108.024L201.299 106.392L200.979 106.6C200.851 106.248 200.637 105.944 200.339 105.688C200.04 105.421 199.651 105.288 199.171 105.288C198.765 105.288 198.403 105.389 198.083 105.592C197.763 105.784 197.512 106.051 197.331 106.392C197.149 106.733 197.059 107.123 197.059 107.56C197.059 108.019 197.155 108.424 197.347 108.776C197.539 109.117 197.8 109.389 198.131 109.592C198.472 109.784 198.856 109.88 199.283 109.88C199.571 109.88 199.848 109.827 200.115 109.72C200.392 109.613 200.648 109.475 200.883 109.304L201.571 110.408C201.24 110.632 200.867 110.813 200.451 110.952C200.045 111.091 199.645 111.16 199.251 111.16ZM203.739 110.152C203.739 109.917 203.825 109.72 203.995 109.56C204.177 109.389 204.374 109.304 204.587 109.304C204.779 109.304 204.961 109.389 205.131 109.56C205.313 109.72 205.403 109.917 205.403 110.152C205.403 110.408 205.313 110.616 205.131 110.776C204.961 110.925 204.779 111 204.587 111C204.374 111 204.177 110.925 203.995 110.776C203.825 110.616 203.739 110.408 203.739 110.152Z" fill="black"/>
</svg>
