<svg width="299" height="99" viewBox="0 0 299 99" fill="none" xmlns="http://www.w3.org/2000/svg">
<path d="M79.8203 1.90909V4.75H66.5249V1.90909H79.8203ZM92.4482 35.375L83.0732 0.545453H86.1413L95.5163 35.375H92.4482ZM114.547 31V34.125H96.3651V31H114.547ZM118.769 18.7273C118.769 15.1477 119.233 11.857 120.161 8.85511C121.099 5.84375 122.434 3.07386 124.167 0.545453H127.121C126.44 1.48295 125.8 2.63826 125.204 4.01136C124.617 5.375 124.101 6.87595 123.656 8.5142C123.21 10.143 122.86 11.8286 122.604 13.571C122.358 15.3134 122.235 17.0322 122.235 18.7273C122.235 20.9811 122.453 23.268 122.888 25.5881C123.324 27.9081 123.911 30.0625 124.65 32.0511C125.388 34.0398 126.212 35.6591 127.121 36.9091H124.167C122.434 34.3807 121.099 31.6155 120.161 28.6136C119.233 25.6023 118.769 22.3068 118.769 18.7273ZM147.2 0.959998C148.08 2.84 150.52 9.2 151.2 11.44L148.08 12.52C147.4 10.24 145.16 4.08 144.16 1.96L147.2 0.959998ZM165 3.52C164.72 4.16 164.44 5.16 164.28 5.76C163.04 10.76 160.92 16.44 157.6 20.76C153.48 26.2 147.6 30.32 141.92 32.32L139.2 29.56C144.88 27.88 150.84 24.04 154.88 18.92C158.04 14.88 160.52 8.48 161.28 2.44L165 3.52ZM136.04 3.36C137.12 5.6 139.6 11.68 140.56 14.32L137.36 15.48C136.6 13 133.84 6.24 132.92 4.48L136.04 3.36ZM179.227 18.7273C179.227 22.3068 178.759 25.6023 177.821 28.6136C176.893 31.6155 175.563 34.3807 173.83 36.9091H170.875C171.557 35.9716 172.191 34.8163 172.778 33.4432C173.375 32.0795 173.896 30.5833 174.341 28.9545C174.786 27.3163 175.132 25.6259 175.378 23.8835C175.634 22.1316 175.761 20.4129 175.761 18.7273C175.761 16.4735 175.544 14.1866 175.108 11.8665C174.672 9.5464 174.085 7.39204 173.347 5.40341C172.608 3.41477 171.784 1.79545 170.875 0.545453H173.83C175.563 3.07386 176.893 5.84375 177.821 8.85511C178.759 11.857 179.227 15.1477 179.227 18.7273ZM201.617 31V34.125H183.435V31H201.617ZM214.93 0.545453L205.555 35.375H202.487L211.862 0.545453H214.93ZM231.461 1.90909V4.75H218.165V1.90909H231.461ZM0.689375 60.54H2.62938V75H0.689375V60.54ZM7.12313 63.08H8.98313V66.76H11.2631V68.22H8.98313V75H7.12313V68.22H5.60313V66.76H7.12313V63.08ZM13.5306 63.72L12.5906 63.24C12.8706 62.9733 13.0906 62.6067 13.2506 62.14C13.424 61.6733 13.464 61.2067 13.3706 60.74L14.8506 60.6C14.9306 60.9733 14.9173 61.3667 14.8106 61.78C14.704 62.18 14.5373 62.5533 14.3106 62.9C14.084 63.2467 13.824 63.52 13.5306 63.72ZM19.522 75.16C18.9354 75.16 18.362 75.06 17.802 74.86C17.2554 74.6467 16.802 74.3333 16.442 73.92L17.222 72.84C17.5687 73.1733 17.922 73.4267 18.282 73.6C18.6554 73.76 19.022 73.84 19.382 73.84C19.6487 73.84 19.8954 73.8067 20.122 73.74C20.3487 73.6733 20.5287 73.5667 20.662 73.42C20.8087 73.26 20.882 73.0467 20.882 72.78C20.882 72.4867 20.782 72.2533 20.582 72.08C20.3954 71.9067 20.1487 71.7667 19.842 71.66C19.5487 71.5533 19.2354 71.4533 18.902 71.36C18.222 71.1333 17.702 70.82 17.342 70.42C16.982 70.02 16.802 69.5333 16.802 68.96C16.802 68.52 16.9087 68.1133 17.122 67.74C17.3487 67.3533 17.6754 67.04 18.102 66.8C18.542 66.56 19.082 66.44 19.722 66.44C20.2954 66.44 20.8087 66.5133 21.262 66.66C21.7154 66.7933 22.142 67.02 22.542 67.34L21.802 68.5C21.562 68.2467 21.2754 68.06 20.942 67.94C20.6087 67.82 20.3087 67.7533 20.042 67.74C19.8154 67.7267 19.5954 67.76 19.382 67.84C19.182 67.92 19.0154 68.0333 18.882 68.18C18.7487 68.3267 18.682 68.5 18.682 68.7C18.682 68.98 18.7754 69.2067 18.962 69.38C19.1487 69.5533 19.3887 69.6933 19.682 69.8C19.9887 69.8933 20.2887 69.9933 20.582 70.1C20.9954 70.22 21.362 70.38 21.682 70.58C22.002 70.78 22.2554 71.0267 22.442 71.32C22.642 71.6133 22.742 71.98 22.742 72.42C22.742 72.9133 22.622 73.3733 22.382 73.8C22.1554 74.2133 21.802 74.5467 21.322 74.8C20.8554 75.04 20.2554 75.16 19.522 75.16ZM35.5147 75.2C34.568 75.2 33.7547 75.0133 33.0747 74.64C32.3947 74.2533 31.868 73.7333 31.4947 73.08C31.1347 72.4133 30.9547 71.6533 30.9547 70.8C30.9547 69.9867 31.1614 69.2467 31.5747 68.58C31.988 67.9133 32.5414 67.38 33.2347 66.98C33.928 66.58 34.7014 66.38 35.5547 66.38C36.648 66.38 37.5547 66.7 38.2747 67.34C38.9947 67.98 39.4814 68.86 39.7347 69.98L32.9147 72.38L32.4747 71.28L38.0747 69.24L37.6747 69.5C37.5147 69.06 37.248 68.68 36.8747 68.36C36.5014 68.0267 36.0147 67.86 35.4147 67.86C34.908 67.86 34.4547 67.9867 34.0547 68.24C33.6547 68.48 33.3414 68.8133 33.1147 69.24C32.888 69.6667 32.7747 70.1533 32.7747 70.7C32.7747 71.2733 32.8947 71.78 33.1347 72.22C33.3747 72.6467 33.7014 72.9867 34.1147 73.24C34.5414 73.48 35.0214 73.6 35.5547 73.6C35.9147 73.6 36.2614 73.5333 36.5947 73.4C36.9414 73.2667 37.2614 73.0933 37.5547 72.88L38.4147 74.26C38.0014 74.54 37.5347 74.7667 37.0147 74.94C36.508 75.1133 36.008 75.2 35.5147 75.2ZM43.7253 66.72L43.8853 68.58L43.8053 68.42C44.112 67.7933 44.5453 67.3 45.1053 66.94C45.6786 66.58 46.332 66.4 47.0653 66.4C47.532 66.4 47.9453 66.4733 48.3053 66.62C48.6653 66.7667 48.9586 66.98 49.1853 67.26C49.4253 67.5267 49.5786 67.86 49.6453 68.26L49.5453 68.32C49.8653 67.72 50.3053 67.2533 50.8653 66.92C51.4386 66.5733 52.0386 66.4 52.6653 66.4C53.4786 66.4 54.1186 66.6333 54.5853 67.1C55.0653 67.5533 55.312 68.1467 55.3253 68.88V75H53.4653V69.54C53.452 69.1133 53.3453 68.76 53.1453 68.48C52.9586 68.1867 52.6253 68.0267 52.1453 68C51.6653 68 51.232 68.1467 50.8453 68.44C50.472 68.7333 50.1786 69.1133 49.9653 69.58C49.752 70.0333 49.6386 70.5267 49.6253 71.06V75H47.7653V69.54C47.752 69.1133 47.6386 68.76 47.4253 68.48C47.2253 68.1867 46.8853 68.0267 46.4053 68C45.912 68 45.4786 68.1467 45.1053 68.44C44.732 68.7333 44.4386 69.1133 44.2253 69.58C44.0253 70.0467 43.9253 70.5467 43.9253 71.08V75H42.0653V66.72H43.7253ZM63.4492 75.2C62.8226 75.2 62.2159 75.0533 61.6292 74.76C61.0559 74.4667 60.6092 74.0733 60.2892 73.58L60.4092 73V78.98H58.5692V66.6H60.1692L60.4292 68.72L60.2292 68.14C60.6292 67.6333 61.1359 67.2133 61.7492 66.88C62.3626 66.5467 63.0492 66.38 63.8092 66.38C64.5826 66.38 65.2759 66.5667 65.8892 66.94C66.5159 67.3133 67.0092 67.8333 67.3692 68.5C67.7292 69.1667 67.9092 69.9467 67.9092 70.84C67.9092 71.7333 67.7159 72.5067 67.3292 73.16C66.9426 73.8133 66.4092 74.32 65.7292 74.68C65.0626 75.0267 64.3026 75.2 63.4492 75.2ZM63.0892 73.72C63.6226 73.72 64.1092 73.6 64.5492 73.36C65.0026 73.1067 65.3626 72.7667 65.6292 72.34C65.8959 71.9 66.0292 71.4067 66.0292 70.86C66.0292 70.3 65.9026 69.8067 65.6492 69.38C65.3959 68.94 65.0559 68.5933 64.6292 68.34C64.2159 68.0867 63.7492 67.96 63.2292 67.96C62.7492 67.96 62.3159 68.0533 61.9292 68.24C61.5426 68.4267 61.2226 68.6867 60.9692 69.02C60.7159 69.34 60.5359 69.7133 60.4292 70.14V71.52C60.4959 71.9467 60.6559 72.3267 60.9092 72.66C61.1626 72.9933 61.4759 73.2533 61.8492 73.44C62.2359 73.6267 62.6492 73.72 63.0892 73.72ZM71.2247 63.08H73.0847V66.76H75.3647V68.22H73.0847V75H71.2247V68.22H69.7047V66.76H71.2247V63.08ZM78.3122 78.98L83.7722 66.72H85.4922L80.1522 78.98H78.3122ZM80.3522 75.06L76.3722 66.72H78.4722L81.8122 74.12L80.3522 75.06ZM93.8231 75V59.52H95.6431V68.64L95.6031 68.3C95.8831 67.7533 96.3098 67.3 96.8831 66.94C97.4698 66.58 98.1565 66.4 98.9431 66.4C99.7298 66.4 100.37 66.6333 100.863 67.1C101.37 67.5533 101.63 68.1467 101.643 68.88V75H99.7631V69.54C99.7498 69.0867 99.6165 68.72 99.3631 68.44C99.1231 68.1467 98.7431 68 98.2231 68C97.7431 68 97.3098 68.14 96.9231 68.42C96.5365 68.6867 96.2298 69.0533 96.0031 69.52C95.7898 69.9867 95.6831 70.52 95.6831 71.12V75H93.8231ZM108.718 75.2C107.771 75.2 106.958 75.0133 106.278 74.64C105.598 74.2533 105.071 73.7333 104.698 73.08C104.338 72.4133 104.158 71.6533 104.158 70.8C104.158 69.9867 104.364 69.2467 104.778 68.58C105.191 67.9133 105.744 67.38 106.438 66.98C107.131 66.58 107.904 66.38 108.758 66.38C109.851 66.38 110.758 66.7 111.478 67.34C112.198 67.98 112.684 68.86 112.938 69.98L106.118 72.38L105.678 71.28L111.278 69.24L110.878 69.5C110.718 69.06 110.451 68.68 110.078 68.36C109.704 68.0267 109.218 67.86 108.618 67.86C108.111 67.86 107.658 67.9867 107.258 68.24C106.858 68.48 106.544 68.8133 106.318 69.24C106.091 69.6667 105.978 70.1533 105.978 70.7C105.978 71.2733 106.098 71.78 106.338 72.22C106.578 72.6467 106.904 72.9867 107.318 73.24C107.744 73.48 108.224 73.6 108.758 73.6C109.118 73.6 109.464 73.5333 109.798 73.4C110.144 73.2667 110.464 73.0933 110.758 72.88L111.618 74.26C111.204 74.54 110.738 74.7667 110.218 74.94C109.711 75.1133 109.211 75.2 108.718 75.2ZM116.928 66.72L117.108 69.12L117.008 68.8C117.222 68.2933 117.528 67.8667 117.928 67.52C118.342 67.16 118.768 66.8867 119.208 66.7C119.662 66.5 120.055 66.4 120.388 66.4L120.288 68.24C119.662 68.2 119.108 68.32 118.628 68.6C118.162 68.88 117.788 69.2533 117.508 69.72C117.242 70.1867 117.108 70.6867 117.108 71.22V75H115.268V66.72H116.928ZM126.276 75.2C125.33 75.2 124.516 75.0133 123.836 74.64C123.156 74.2533 122.63 73.7333 122.256 73.08C121.896 72.4133 121.716 71.6533 121.716 70.8C121.716 69.9867 121.923 69.2467 122.336 68.58C122.75 67.9133 123.303 67.38 123.996 66.98C124.69 66.58 125.463 66.38 126.316 66.38C127.41 66.38 128.316 66.7 129.036 67.34C129.756 67.98 130.243 68.86 130.496 69.98L123.676 72.38L123.236 71.28L128.836 69.24L128.436 69.5C128.276 69.06 128.01 68.68 127.636 68.36C127.263 68.0267 126.776 67.86 126.176 67.86C125.67 67.86 125.216 67.9867 124.816 68.24C124.416 68.48 124.103 68.8133 123.876 69.24C123.65 69.6667 123.536 70.1533 123.536 70.7C123.536 71.2733 123.656 71.78 123.896 72.22C124.136 72.6467 124.463 72.9867 124.876 73.24C125.303 73.48 125.783 73.6 126.316 73.6C126.676 73.6 127.023 73.5333 127.356 73.4C127.703 73.2667 128.023 73.0933 128.316 72.88L129.176 74.26C128.763 74.54 128.296 74.7667 127.776 74.94C127.27 75.1133 126.77 75.2 126.276 75.2ZM131.887 73.94C131.887 73.6467 131.994 73.4 132.207 73.2C132.434 72.9867 132.68 72.88 132.947 72.88C133.187 72.88 133.414 72.9867 133.627 73.2C133.854 73.4 133.967 73.6467 133.967 73.94C133.967 74.26 133.854 74.52 133.627 74.72C133.414 74.9067 133.187 75 132.947 75C132.68 75 132.434 74.9067 132.207 74.72C131.994 74.52 131.887 74.26 131.887 73.94ZM153.595 73.92C153.355 74.08 153.028 74.26 152.615 74.46C152.201 74.66 151.715 74.8267 151.155 74.96C150.608 75.0933 150.008 75.16 149.355 75.16C148.235 75.1467 147.221 74.9467 146.315 74.56C145.421 74.1733 144.661 73.6467 144.035 72.98C143.408 72.3133 142.921 71.5467 142.575 70.68C142.241 69.8 142.075 68.8667 142.075 67.88C142.075 66.8 142.248 65.8067 142.595 64.9C142.955 63.98 143.455 63.1867 144.095 62.52C144.735 61.84 145.488 61.3133 146.355 60.94C147.235 60.5667 148.195 60.38 149.235 60.38C150.101 60.38 150.888 60.5 151.595 60.74C152.301 60.9667 152.908 61.24 153.415 61.56L152.635 63.36C152.235 63.0933 151.748 62.84 151.175 62.6C150.615 62.36 149.988 62.24 149.295 62.24C148.588 62.24 147.921 62.38 147.295 62.66C146.668 62.94 146.115 63.3333 145.635 63.84C145.155 64.3467 144.775 64.94 144.495 65.62C144.228 66.2867 144.095 67.0067 144.095 67.78C144.095 68.5667 144.215 69.3 144.455 69.98C144.708 70.6467 145.061 71.2267 145.515 71.72C145.981 72.2133 146.541 72.6 147.195 72.88C147.848 73.16 148.581 73.3 149.395 73.3C150.128 73.3 150.781 73.1867 151.355 72.96C151.928 72.7333 152.401 72.48 152.775 72.2L153.595 73.92ZM156.401 59.52H158.261V75H156.401V59.52ZM161.479 66.72H163.339V75H161.479V66.72ZM161.339 63.72C161.339 63.4267 161.453 63.18 161.679 62.98C161.919 62.78 162.179 62.68 162.459 62.68C162.739 62.68 162.986 62.78 163.199 62.98C163.426 63.18 163.539 63.4267 163.539 63.72C163.539 64.0267 163.426 64.28 163.199 64.48C162.986 64.6667 162.739 64.76 162.459 64.76C162.179 64.76 161.919 64.66 161.679 64.46C161.453 64.26 161.339 64.0133 161.339 63.72ZM173.278 74.24C172.904 74.5333 172.458 74.7667 171.938 74.94C171.418 75.1133 170.898 75.2 170.378 75.2C169.471 75.2 168.678 75.02 167.998 74.66C167.318 74.3 166.784 73.8 166.398 73.16C166.024 72.5067 165.838 71.74 165.838 70.86C165.838 69.98 166.038 69.2133 166.438 68.56C166.851 67.9067 167.384 67.4067 168.038 67.06C168.704 66.7 169.418 66.52 170.178 66.52C170.844 66.52 171.438 66.6133 171.958 66.8C172.491 66.9867 172.944 67.24 173.318 67.56L172.398 68.76C172.158 68.5733 171.864 68.4067 171.518 68.26C171.171 68.1133 170.778 68.04 170.338 68.04C169.858 68.04 169.411 68.1667 168.998 68.42C168.598 68.66 168.278 68.9933 168.038 69.42C167.811 69.8467 167.698 70.3267 167.698 70.86C167.698 71.3667 167.818 71.84 168.058 72.28C168.298 72.7067 168.631 73.0467 169.058 73.3C169.484 73.54 169.971 73.66 170.518 73.66C170.878 73.66 171.204 73.6067 171.498 73.5C171.804 73.3933 172.078 73.2467 172.318 73.06L173.278 74.24ZM175.679 75V59.52H177.539V75H175.679ZM179.539 69.5L183.339 75H181.159L178.299 70.54L179.539 69.5ZM176.959 72.36L176.779 70.58L181.799 66.54L182.939 67.52L176.959 72.36ZM193.628 66.72L193.788 68.74L193.708 68.42C193.974 67.8067 194.408 67.32 195.008 66.96C195.608 66.5867 196.301 66.4 197.088 66.4C197.874 66.4 198.514 66.6333 199.008 67.1C199.514 67.5533 199.774 68.1467 199.788 68.88V75H197.908V69.54C197.894 69.0867 197.761 68.72 197.508 68.44C197.268 68.1467 196.888 68 196.368 68C195.888 68 195.454 68.1333 195.068 68.4C194.681 68.6667 194.374 69.0333 194.148 69.5C193.934 69.9667 193.828 70.5067 193.828 71.12V75H191.968V66.72H193.628ZM206.862 75.2C205.916 75.2 205.102 75.0133 204.422 74.64C203.742 74.2533 203.216 73.7333 202.842 73.08C202.482 72.4133 202.302 71.6533 202.302 70.8C202.302 69.9867 202.509 69.2467 202.922 68.58C203.336 67.9133 203.889 67.38 204.582 66.98C205.276 66.58 206.049 66.38 206.902 66.38C207.996 66.38 208.902 66.7 209.622 67.34C210.342 67.98 210.829 68.86 211.082 69.98L204.262 72.38L203.822 71.28L209.422 69.24L209.022 69.5C208.862 69.06 208.596 68.68 208.222 68.36C207.849 68.0267 207.362 67.86 206.762 67.86C206.256 67.86 205.802 67.9867 205.402 68.24C205.002 68.48 204.689 68.8133 204.462 69.24C204.236 69.6667 204.122 70.1533 204.122 70.7C204.122 71.2733 204.242 71.78 204.482 72.22C204.722 72.6467 205.049 72.9867 205.462 73.24C205.889 73.48 206.369 73.6 206.902 73.6C207.262 73.6 207.609 73.5333 207.942 73.4C208.289 73.2667 208.609 73.0933 208.902 72.88L209.762 74.26C209.349 74.54 208.882 74.7667 208.362 74.94C207.856 75.1133 207.356 75.2 206.862 75.2ZM218.479 66.72L220.919 72.3L220.559 72.34L222.839 66.72H224.659L220.859 75.5L218.199 69.82L215.779 75.5L211.939 66.72H213.759L216.339 72.56L215.699 72.44L217.539 68.16L216.879 66.72H218.479ZM238.023 75.2C237.263 75.2 236.59 75.0333 236.003 74.7C235.43 74.3667 234.97 73.9467 234.623 73.44L234.843 72.86V75H232.983V59.52H234.823V68.62L234.763 67.92C235.097 67.4667 235.57 67.1 236.183 66.82C236.81 66.5267 237.503 66.38 238.263 66.38C239.01 66.38 239.69 66.56 240.303 66.92C240.917 67.28 241.403 67.7867 241.763 68.44C242.137 69.08 242.323 69.8467 242.323 70.74C242.323 71.6733 242.123 72.4733 241.723 73.14C241.337 73.8067 240.817 74.32 240.163 74.68C239.51 75.0267 238.797 75.2 238.023 75.2ZM237.643 73.62C238.177 73.62 238.657 73.4933 239.083 73.24C239.51 72.9867 239.843 72.6467 240.083 72.22C240.323 71.78 240.443 71.28 240.443 70.72C240.443 70.1867 240.317 69.7067 240.063 69.28C239.823 68.84 239.49 68.4933 239.063 68.24C238.65 67.9867 238.177 67.86 237.643 67.86C237.19 67.86 236.77 67.9467 236.383 68.12C235.997 68.2933 235.67 68.5333 235.403 68.84C235.137 69.1333 234.95 69.48 234.843 69.88V71.54C234.95 71.94 235.13 72.3 235.383 72.62C235.637 72.9267 235.957 73.1733 236.343 73.36C236.73 73.5333 237.163 73.62 237.643 73.62ZM244.119 70.78C244.119 69.9533 244.312 69.2067 244.699 68.54C245.099 67.8733 245.645 67.3467 246.339 66.96C247.032 66.5733 247.819 66.38 248.699 66.38C249.605 66.38 250.399 66.5733 251.079 66.96C251.759 67.3467 252.285 67.8733 252.659 68.54C253.032 69.2067 253.219 69.9533 253.219 70.78C253.219 71.6067 253.032 72.36 252.659 73.04C252.285 73.7067 251.752 74.2333 251.059 74.62C250.379 75.0067 249.585 75.2 248.679 75.2C247.799 75.2 247.012 75.02 246.319 74.66C245.639 74.2867 245.099 73.7733 244.699 73.12C244.312 72.4533 244.119 71.6733 244.119 70.78ZM245.979 70.8C245.979 71.3333 246.099 71.82 246.339 72.26C246.579 72.6867 246.899 73.0267 247.299 73.28C247.712 73.5333 248.165 73.66 248.659 73.66C249.179 73.66 249.639 73.5333 250.039 73.28C250.452 73.0267 250.772 72.6867 250.999 72.26C251.225 71.82 251.339 71.3333 251.339 70.8C251.339 70.2667 251.225 69.7867 250.999 69.36C250.772 68.92 250.452 68.5733 250.039 68.32C249.639 68.0533 249.179 67.92 248.659 67.92C248.152 67.92 247.692 68.0533 247.279 68.32C246.879 68.5867 246.559 68.94 246.319 69.38C246.092 69.8067 245.979 70.28 245.979 70.8ZM255.017 70.78C255.017 69.9533 255.211 69.2067 255.597 68.54C255.997 67.8733 256.544 67.3467 257.237 66.96C257.931 66.5733 258.717 66.38 259.597 66.38C260.504 66.38 261.297 66.5733 261.977 66.96C262.657 67.3467 263.184 67.8733 263.557 68.54C263.931 69.2067 264.117 69.9533 264.117 70.78C264.117 71.6067 263.931 72.36 263.557 73.04C263.184 73.7067 262.651 74.2333 261.957 74.62C261.277 75.0067 260.484 75.2 259.577 75.2C258.697 75.2 257.911 75.02 257.217 74.66C256.537 74.2867 255.997 73.7733 255.597 73.12C255.211 72.4533 255.017 71.6733 255.017 70.78ZM256.877 70.8C256.877 71.3333 256.997 71.82 257.237 72.26C257.477 72.6867 257.797 73.0267 258.197 73.28C258.611 73.5333 259.064 73.66 259.557 73.66C260.077 73.66 260.537 73.5333 260.937 73.28C261.351 73.0267 261.671 72.6867 261.897 72.26C262.124 71.82 262.237 71.3333 262.237 70.8C262.237 70.2667 262.124 69.7867 261.897 69.36C261.671 68.92 261.351 68.5733 260.937 68.32C260.537 68.0533 260.077 67.92 259.557 67.92C259.051 67.92 258.591 68.0533 258.177 68.32C257.777 68.5867 257.457 68.94 257.217 69.38C256.991 69.8067 256.877 70.28 256.877 70.8ZM266.636 75V59.52H268.496V75H266.636ZM270.496 69.5L274.296 75H272.116L269.256 70.54L270.496 69.5ZM267.916 72.36L267.736 70.58L272.756 66.54L273.896 67.52L267.916 72.36ZM283.725 63.08H285.585V66.76H287.865V68.22H285.585V75H283.725V68.22H282.205V66.76H283.725V63.08ZM289.392 70.78C289.392 69.9533 289.586 69.2067 289.972 68.54C290.372 67.8733 290.919 67.3467 291.612 66.96C292.306 66.5733 293.092 66.38 293.972 66.38C294.879 66.38 295.672 66.5733 296.352 66.96C297.032 67.3467 297.559 67.8733 297.932 68.54C298.306 69.2067 298.492 69.9533 298.492 70.78C298.492 71.6067 298.306 72.36 297.932 73.04C297.559 73.7067 297.026 74.2333 296.332 74.62C295.652 75.0067 294.859 75.2 293.952 75.2C293.072 75.2 292.286 75.02 291.592 74.66C290.912 74.2867 290.372 73.7733 289.972 73.12C289.586 72.4533 289.392 71.6733 289.392 70.78ZM291.252 70.8C291.252 71.3333 291.372 71.82 291.612 72.26C291.852 72.6867 292.172 73.0267 292.572 73.28C292.986 73.5333 293.439 73.66 293.932 73.66C294.452 73.66 294.912 73.5333 295.312 73.28C295.726 73.0267 296.046 72.6867 296.272 72.26C296.499 71.82 296.612 71.3333 296.612 70.8C296.612 70.2667 296.499 69.7867 296.272 69.36C296.046 68.92 295.726 68.5733 295.312 68.32C294.912 68.0533 294.452 67.92 293.932 67.92C293.426 67.92 292.966 68.0533 292.552 68.32C292.152 68.5867 291.832 68.94 291.592 69.38C291.366 69.8067 291.252 70.28 291.252 70.8ZM61.3439 94.24C60.9706 94.5333 60.5239 94.7667 60.0039 94.94C59.4839 95.1133 58.9639 95.2 58.4439 95.2C57.5372 95.2 56.7439 95.02 56.0639 94.66C55.3839 94.3 54.8506 93.8 54.4639 93.16C54.0906 92.5067 53.9039 91.74 53.9039 90.86C53.9039 89.98 54.1039 89.2133 54.5039 88.56C54.9172 87.9067 55.4506 87.4067 56.1039 87.06C56.7706 86.7 57.4839 86.52 58.2439 86.52C58.9106 86.52 59.5039 86.6133 60.0239 86.8C60.5572 86.9867 61.0106 87.24 61.3839 87.56L60.4639 88.76C60.2239 88.5733 59.9306 88.4067 59.5839 88.26C59.2372 88.1133 58.8439 88.04 58.4039 88.04C57.9239 88.04 57.4772 88.1667 57.0639 88.42C56.6639 88.66 56.3439 88.9933 56.1039 89.42C55.8772 89.8467 55.7639 90.3267 55.7639 90.86C55.7639 91.3667 55.8839 91.84 56.1239 92.28C56.3639 92.7067 56.6972 93.0467 57.1239 93.3C57.5506 93.54 58.0372 93.66 58.5839 93.66C58.9439 93.66 59.2706 93.6067 59.5639 93.5C59.8706 93.3933 60.1439 93.2467 60.3839 93.06L61.3439 94.24ZM65.405 86.72L65.585 89.12L65.485 88.8C65.6983 88.2933 66.005 87.8667 66.405 87.52C66.8183 87.16 67.245 86.8867 67.685 86.7C68.1383 86.5 68.5317 86.4 68.865 86.4L68.765 88.24C68.1383 88.2 67.585 88.32 67.105 88.6C66.6383 88.88 66.265 89.2533 65.985 89.72C65.7183 90.1867 65.585 90.6867 65.585 91.22V95H63.745V86.72H65.405ZM74.753 95.2C73.8063 95.2 72.993 95.0133 72.313 94.64C71.633 94.2533 71.1063 93.7333 70.733 93.08C70.373 92.4133 70.193 91.6533 70.193 90.8C70.193 89.9867 70.3996 89.2467 70.813 88.58C71.2263 87.9133 71.7796 87.38 72.473 86.98C73.1663 86.58 73.9396 86.38 74.793 86.38C75.8863 86.38 76.793 86.7 77.513 87.34C78.233 87.98 78.7196 88.86 78.973 89.98L72.153 92.38L71.713 91.28L77.313 89.24L76.913 89.5C76.753 89.06 76.4863 88.68 76.113 88.36C75.7396 88.0267 75.253 87.86 74.653 87.86C74.1463 87.86 73.693 87.9867 73.293 88.24C72.893 88.48 72.5796 88.8133 72.353 89.24C72.1263 89.6667 72.013 90.1533 72.013 90.7C72.013 91.2733 72.133 91.78 72.373 92.22C72.613 92.6467 72.9396 92.9867 73.353 93.24C73.7796 93.48 74.2596 93.6 74.793 93.6C75.153 93.6 75.4996 93.5333 75.833 93.4C76.1796 93.2667 76.4996 93.0933 76.793 92.88L77.653 94.26C77.2396 94.54 76.773 94.7667 76.253 94.94C75.7463 95.1133 75.2463 95.2 74.753 95.2ZM84.7436 95.2C83.9703 95.2 83.2636 95.0333 82.6236 94.7C81.9969 94.3667 81.4969 93.88 81.1236 93.24C80.7636 92.5867 80.5836 91.7933 80.5836 90.86C80.5836 89.94 80.7769 89.1467 81.1636 88.48C81.5503 87.8 82.0636 87.28 82.7036 86.92C83.3569 86.56 84.0703 86.38 84.8436 86.38C85.6169 86.38 86.2703 86.56 86.8036 86.92C87.3369 87.2667 87.7436 87.68 88.0236 88.16L87.9036 88.48L88.0836 86.72H89.8036V95H87.9436V92.84L88.1436 93.32C88.0903 93.4533 87.9703 93.6267 87.7836 93.84C87.6103 94.04 87.3703 94.2467 87.0636 94.46C86.7703 94.6733 86.4303 94.8533 86.0436 95C85.6569 95.1333 85.2236 95.2 84.7436 95.2ZM85.2436 93.66C85.7103 93.66 86.1303 93.5733 86.5036 93.4C86.8769 93.2267 87.1836 92.9867 87.4236 92.68C87.6769 92.36 87.8503 91.98 87.9436 91.54V89.92C87.8369 89.52 87.6503 89.1733 87.3836 88.88C87.1169 88.5733 86.7969 88.34 86.4236 88.18C86.0503 88.0067 85.6369 87.92 85.1836 87.92C84.6903 87.92 84.2369 88.04 83.8236 88.28C83.4103 88.52 83.0769 88.8533 82.8236 89.28C82.5836 89.7067 82.4636 90.2067 82.4636 90.78C82.4636 91.3133 82.5903 91.8 82.8436 92.24C83.0969 92.68 83.4369 93.0267 83.8636 93.28C84.2903 93.5333 84.7503 93.66 85.2436 93.66ZM93.8223 83.08H95.6823V86.76H97.9623V88.22H95.6823V95H93.8223V88.22H92.3023V86.76H93.8223V83.08ZM104.05 95.2C103.103 95.2 102.29 95.0133 101.61 94.64C100.93 94.2533 100.403 93.7333 100.03 93.08C99.6698 92.4133 99.4898 91.6533 99.4898 90.8C99.4898 89.9867 99.6965 89.2467 100.11 88.58C100.523 87.9133 101.077 87.38 101.77 86.98C102.463 86.58 103.237 86.38 104.09 86.38C105.183 86.38 106.09 86.7 106.81 87.34C107.53 87.98 108.017 88.86 108.27 89.98L101.45 92.38L101.01 91.28L106.61 89.24L106.21 89.5C106.05 89.06 105.783 88.68 105.41 88.36C105.037 88.0267 104.55 87.86 103.95 87.86C103.443 87.86 102.99 87.9867 102.59 88.24C102.19 88.48 101.877 88.8133 101.65 89.24C101.423 89.6667 101.31 90.1533 101.31 90.7C101.31 91.2733 101.43 91.78 101.67 92.22C101.91 92.6467 102.237 92.9867 102.65 93.24C103.077 93.48 103.557 93.6 104.09 93.6C104.45 93.6 104.797 93.5333 105.13 93.4C105.477 93.2667 105.797 93.0933 106.09 92.88L106.95 94.26C106.537 94.54 106.07 94.7667 105.55 94.94C105.043 95.1133 104.543 95.2 104.05 95.2ZM117.629 98.98L123.089 86.72H124.809L119.469 98.98H117.629ZM119.669 95.06L115.689 86.72H117.789L121.129 94.12L119.669 95.06ZM125.838 90.78C125.838 89.9533 126.031 89.2067 126.418 88.54C126.818 87.8733 127.364 87.3467 128.058 86.96C128.751 86.5733 129.538 86.38 130.418 86.38C131.324 86.38 132.118 86.5733 132.798 86.96C133.478 87.3467 134.004 87.8733 134.378 88.54C134.751 89.2067 134.938 89.9533 134.938 90.78C134.938 91.6067 134.751 92.36 134.378 93.04C134.004 93.7067 133.471 94.2333 132.778 94.62C132.098 95.0067 131.304 95.2 130.398 95.2C129.518 95.2 128.731 95.02 128.038 94.66C127.358 94.2867 126.818 93.7733 126.418 93.12C126.031 92.4533 125.838 91.6733 125.838 90.78ZM127.698 90.8C127.698 91.3333 127.818 91.82 128.058 92.26C128.298 92.6867 128.618 93.0267 129.018 93.28C129.431 93.5333 129.884 93.66 130.378 93.66C130.898 93.66 131.358 93.5333 131.758 93.28C132.171 93.0267 132.491 92.6867 132.718 92.26C132.944 91.82 133.058 91.3333 133.058 90.8C133.058 90.2667 132.944 89.7867 132.718 89.36C132.491 88.92 132.171 88.5733 131.758 88.32C131.358 88.0533 130.898 87.92 130.378 87.92C129.871 87.92 129.411 88.0533 128.998 88.32C128.598 88.5867 128.278 88.94 128.038 89.38C127.811 89.8067 127.698 90.28 127.698 90.8ZM140.076 95.32C139.329 95.32 138.709 95.0933 138.216 94.64C137.736 94.1733 137.483 93.5733 137.456 92.84V86.72H139.316V92.18C139.343 92.6333 139.469 93 139.696 93.28C139.936 93.56 140.309 93.7067 140.816 93.72C141.283 93.72 141.696 93.5867 142.056 93.32C142.429 93.04 142.729 92.6667 142.956 92.2C143.183 91.72 143.296 91.18 143.296 90.58V86.72H145.156V95H143.456L143.296 92.96L143.396 93.32C143.236 93.7067 142.989 94.0533 142.656 94.36C142.336 94.6533 141.956 94.8867 141.516 95.06C141.076 95.2333 140.596 95.32 140.076 95.32ZM150.034 86.72L150.214 89.12L150.114 88.8C150.327 88.2933 150.634 87.8667 151.034 87.52C151.447 87.16 151.874 86.8867 152.314 86.7C152.767 86.5 153.161 86.4 153.494 86.4L153.394 88.24C152.767 88.2 152.214 88.32 151.734 88.6C151.267 88.88 150.894 89.2533 150.614 89.72C150.347 90.1867 150.214 90.6867 150.214 91.22V95H148.374V86.72H150.034ZM162.902 95V88.38H161.482V86.72H162.902V83.22C162.902 82.02 163.168 81.1 163.702 80.46C164.248 79.82 165.048 79.5 166.102 79.5C166.382 79.5 166.688 79.54 167.022 79.62C167.368 79.7 167.668 79.8333 167.922 80.02L167.142 81.36C167.022 81.24 166.888 81.16 166.742 81.12C166.608 81.0667 166.462 81.04 166.302 81.04C165.808 81.04 165.428 81.2067 165.162 81.54C164.895 81.8733 164.762 82.44 164.762 83.24V86.72H167.122V88.38H164.762V95H162.902ZM168.722 86.72H170.582V95H168.722V86.72ZM168.582 83.72C168.582 83.4267 168.702 83.1867 168.942 83C169.182 82.8 169.442 82.7 169.722 82.7C169.988 82.7 170.235 82.8 170.462 83C170.688 83.1867 170.802 83.4333 170.802 83.74C170.802 84.0467 170.688 84.3 170.462 84.5C170.235 84.6867 169.988 84.78 169.722 84.78C169.442 84.78 169.182 84.68 168.942 84.48C168.702 84.28 168.582 84.0267 168.582 83.72ZM175.483 86.72L175.663 89.12L175.563 88.8C175.776 88.2933 176.083 87.8667 176.483 87.52C176.896 87.16 177.323 86.8867 177.763 86.7C178.216 86.5 178.61 86.4 178.943 86.4L178.843 88.24C178.216 88.2 177.663 88.32 177.183 88.6C176.716 88.88 176.343 89.2533 176.063 89.72C175.796 90.1867 175.663 90.6867 175.663 91.22V95H173.823V86.72H175.483ZM183.663 95.16C183.076 95.16 182.503 95.06 181.943 94.86C181.396 94.6467 180.943 94.3333 180.583 93.92L181.363 92.84C181.709 93.1733 182.063 93.4267 182.423 93.6C182.796 93.76 183.163 93.84 183.523 93.84C183.789 93.84 184.036 93.8067 184.263 93.74C184.489 93.6733 184.669 93.5667 184.803 93.42C184.949 93.26 185.023 93.0467 185.023 92.78C185.023 92.4867 184.923 92.2533 184.723 92.08C184.536 91.9067 184.289 91.7667 183.983 91.66C183.689 91.5533 183.376 91.4533 183.043 91.36C182.363 91.1333 181.843 90.82 181.483 90.42C181.123 90.02 180.943 89.5333 180.943 88.96C180.943 88.52 181.049 88.1133 181.263 87.74C181.489 87.3533 181.816 87.04 182.243 86.8C182.683 86.56 183.223 86.44 183.863 86.44C184.436 86.44 184.949 86.5133 185.403 86.66C185.856 86.7933 186.283 87.02 186.683 87.34L185.943 88.5C185.703 88.2467 185.416 88.06 185.083 87.94C184.749 87.82 184.449 87.7533 184.183 87.74C183.956 87.7267 183.736 87.76 183.523 87.84C183.323 87.92 183.156 88.0333 183.023 88.18C182.889 88.3267 182.823 88.5 182.823 88.7C182.823 88.98 182.916 89.2067 183.103 89.38C183.289 89.5533 183.529 89.6933 183.823 89.8C184.129 89.8933 184.429 89.9933 184.723 90.1C185.136 90.22 185.503 90.38 185.823 90.58C186.143 90.78 186.396 91.0267 186.583 91.32C186.783 91.6133 186.883 91.98 186.883 92.42C186.883 92.9133 186.763 93.3733 186.523 93.8C186.296 94.2133 185.943 94.5467 185.463 94.8C184.996 95.04 184.396 95.16 183.663 95.16ZM190.287 83.08H192.147V86.76H194.427V88.22H192.147V95H190.287V88.22H188.767V86.76H190.287V83.08ZM208.043 95.2C207.283 95.2 206.609 95.0333 206.023 94.7C205.449 94.3667 204.989 93.9467 204.643 93.44L204.863 92.86V95H203.003V79.52H204.843V88.62L204.783 87.92C205.116 87.4667 205.589 87.1 206.203 86.82C206.829 86.5267 207.523 86.38 208.283 86.38C209.029 86.38 209.709 86.56 210.323 86.92C210.936 87.28 211.423 87.7867 211.783 88.44C212.156 89.08 212.343 89.8467 212.343 90.74C212.343 91.6733 212.143 92.4733 211.743 93.14C211.356 93.8067 210.836 94.32 210.183 94.68C209.529 95.0267 208.816 95.2 208.043 95.2ZM207.663 93.62C208.196 93.62 208.676 93.4933 209.103 93.24C209.529 92.9867 209.863 92.6467 210.103 92.22C210.343 91.78 210.463 91.28 210.463 90.72C210.463 90.1867 210.336 89.7067 210.083 89.28C209.843 88.84 209.509 88.4933 209.083 88.24C208.669 87.9867 208.196 87.86 207.663 87.86C207.209 87.86 206.789 87.9467 206.403 88.12C206.016 88.2933 205.689 88.5333 205.423 88.84C205.156 89.1333 204.969 89.48 204.863 89.88V91.54C204.969 91.94 205.149 92.3 205.403 92.62C205.656 92.9267 205.976 93.1733 206.363 93.36C206.749 93.5333 207.183 93.62 207.663 93.62ZM214.138 90.78C214.138 89.9533 214.332 89.2067 214.718 88.54C215.118 87.8733 215.665 87.3467 216.358 86.96C217.052 86.5733 217.838 86.38 218.718 86.38C219.625 86.38 220.418 86.5733 221.098 86.96C221.778 87.3467 222.305 87.8733 222.678 88.54C223.052 89.2067 223.238 89.9533 223.238 90.78C223.238 91.6067 223.052 92.36 222.678 93.04C222.305 93.7067 221.772 94.2333 221.078 94.62C220.398 95.0067 219.605 95.2 218.698 95.2C217.818 95.2 217.032 95.02 216.338 94.66C215.658 94.2867 215.118 93.7733 214.718 93.12C214.332 92.4533 214.138 91.6733 214.138 90.78ZM215.998 90.8C215.998 91.3333 216.118 91.82 216.358 92.26C216.598 92.6867 216.918 93.0267 217.318 93.28C217.732 93.5333 218.185 93.66 218.678 93.66C219.198 93.66 219.658 93.5333 220.058 93.28C220.472 93.0267 220.792 92.6867 221.018 92.26C221.245 91.82 221.358 91.3333 221.358 90.8C221.358 90.2667 221.245 89.7867 221.018 89.36C220.792 88.92 220.472 88.5733 220.058 88.32C219.658 88.0533 219.198 87.92 218.678 87.92C218.172 87.92 217.712 88.0533 217.298 88.32C216.898 88.5867 216.578 88.94 216.338 89.38C216.112 89.8067 215.998 90.28 215.998 90.8ZM225.037 90.78C225.037 89.9533 225.23 89.2067 225.617 88.54C226.017 87.8733 226.563 87.3467 227.257 86.96C227.95 86.5733 228.737 86.38 229.617 86.38C230.523 86.38 231.317 86.5733 231.997 86.96C232.677 87.3467 233.203 87.8733 233.577 88.54C233.95 89.2067 234.137 89.9533 234.137 90.78C234.137 91.6067 233.95 92.36 233.577 93.04C233.203 93.7067 232.67 94.2333 231.977 94.62C231.297 95.0067 230.503 95.2 229.597 95.2C228.717 95.2 227.93 95.02 227.237 94.66C226.557 94.2867 226.017 93.7733 225.617 93.12C225.23 92.4533 225.037 91.6733 225.037 90.78ZM226.897 90.8C226.897 91.3333 227.017 91.82 227.257 92.26C227.497 92.6867 227.817 93.0267 228.217 93.28C228.63 93.5333 229.083 93.66 229.577 93.66C230.097 93.66 230.557 93.5333 230.957 93.28C231.37 93.0267 231.69 92.6867 231.917 92.26C232.143 91.82 232.257 91.3333 232.257 90.8C232.257 90.2667 232.143 89.7867 231.917 89.36C231.69 88.92 231.37 88.5733 230.957 88.32C230.557 88.0533 230.097 87.92 229.577 87.92C229.07 87.92 228.61 88.0533 228.197 88.32C227.797 88.5867 227.477 88.94 227.237 89.38C227.01 89.8067 226.897 90.28 226.897 90.8ZM236.655 95V79.52H238.515V95H236.655ZM240.515 89.5L244.315 95H242.135L239.275 90.54L240.515 89.5ZM237.935 92.36L237.755 90.58L242.775 86.54L243.915 87.52L237.935 92.36Z" fill="white"/>
</svg>
